<?xml version="1.0" encoding="UTF-8" standalone="no"?>
<!-- Created with Inkscape (http://www.inkscape.org/) -->

<svg
   width="100mm"
   height="100mm"
   viewBox="0 0 100 100"
   version="1.1"
   id="svg1"
   xmlns="http://www.w3.org/2000/svg"
   xmlns:svg="http://www.w3.org/2000/svg">
  <defs
     id="defs1" />
  <g
     id="layer1">
    <path
       id="path1"
       style="fill:#c09f49;fill-opacity:1;fill-rule:evenodd;stroke:none;stroke-width:0.665001"
       d="m 183.87355,26.336887 -33.04173,19.07687 31.4408,18.15238 a 36.565323,36.565323 0 0 0 5.94172,-19.95124 36.565323,36.565323 0 0 0 -4.34079,-17.27801 z" />
    <path
       id="circle2"
       style="fill:#c09f49;fill-opacity:1;fill-rule:evenodd;stroke:none;stroke-width:0.665001"
       d="m 145.16433,7.2252996 a 36.565323,36.565323 0 0 0 -36.5657,36.5657274 36.565323,36.565323 0 0 0 36.5657,36.56521 36.565323,36.565323 0 0 0 30.62327,-16.613973 L 144.34681,45.589367 177.38801,26.513012 A 36.565323,36.565323 0 0 0 145.16433,7.2252996 Z" />
    <path
       id="path3"
       style="fill:#c09f49;fill-opacity:1;fill-rule:evenodd;stroke:none;stroke-width:0.665001"
       d="m 167.90644,82.513094 -33.04191,19.076876 31.44097,18.15239 a 36.565323,36.565323 0 0 0 5.94176,-19.951246 36.565323,36.565323 0 0 0 -4.34082,-17.27802 z" />
    <path
       id="path6"
       style="fill:#c09f49;fill-opacity:1;fill-rule:evenodd;stroke:none;stroke-width:0.665001"
       d="m 48.512204,12.947332 a 36.565323,36.565323 0 0 0 -36.565727,36.56575 36.565323,36.565323 0 0 0 36.565727,36.565235 36.565323,36.565323 0 0 0 30.62345,-16.61398 l -31.44097,-18.152915 33.04139,-19.07637 a 36.565323,36.565323 0 0 0 -32.22387,-19.28772 z" />
  </g>
</svg>
